<svg width="512" height="512" version="1.1" viewBox="0 0 135.47 135.47" xmlns="http://www.w3.org/2000/svg"><g><rect x="8.2021" y="8.2021" width="119.06" height="119.06" rx="15.875" ry="15.875" fill="#2656a8" fill-rule="evenodd" stroke-linecap="round" stroke-linejoin="round" stroke-miterlimit="16.8" stroke-width="1.3229" style="paint-order:stroke fill markers"/><path d="m38.851 100.75h11.99l16.717-51.158-0.02698-0.01612 16.568 51.174h12.516l-21.093-60.74h-14.441zm19.051-15.141h19.355l-3.1263-10.065h-12.905z" fill="#0f2751" fill-rule="evenodd" stroke-linecap="round" stroke-linejoin="round" stroke-miterlimit="16.8" stroke-width="18.234" style="paint-order:stroke fill markers" aria-label="A"/><path d="m38.851 98.103h11.99l16.717-51.158-0.02698-0.01612 16.568 51.174h12.516l-21.093-60.74h-14.441zm19.051-15.141h19.355l-3.1263-10.065h-12.905z" fill="#fff" fill-rule="evenodd" stroke-linecap="round" stroke-linejoin="round" stroke-miterlimit="16.8" stroke-width="18.234" style="paint-order:stroke fill markers" aria-label="A"/><path d="m135.47 103.72c0 17.536-14.215 31.75-31.75 31.75-17.536 0-31.75-14.215-31.75-31.75 0-17.536 14.215-31.75 31.75-31.75 17.536 0 31.75 14.215 31.75 31.75z" opacity=".3" stroke-width=".18814"/><path d="m42.628 23.074 2.5389 6.4384c-3.6676 1.848-7.1066 4.1473-10.211 6.8399-2.806 2.4327-5.3391 5.1792-7.5344 8.1752a1.3016 1.3016 0 0 0 0.28112 1.8211 1.3016 1.3016 0 0 0 1.8211-0.28164c2.0796-2.838 4.4788-5.4428 7.1375-7.7478 2.8795-2.4977 6.0672-4.6416 9.464-6.3748l2.3802 6.0363 9.9565-12.538zm55.219 11.464a1.3016 1.3016 0 0 0-1.0382 0.50023 1.3016 1.3016 0 0 0 0.22272 1.8268c3.5995 2.8182 6.7861 6.1656 9.4227 9.9002a1.3018 1.3018 0 0 0 1e-3 0.0016c1.3013 1.8417 2.4689 3.7782 3.4944 5.7878l-6.0374 2.3802 12.539 9.9539 2.3699-15.832-6.4384 2.5383c-1.1086-2.1998-2.3793-4.3187-3.8018-6.3319-2.7834-3.9422-6.1433-7.473-9.9431-10.448a1.3016 1.3016 0 0 0-0.79065-0.27698zm-78.832 48.895-2.3688 15.834 6.4389-2.5383c1.572 3.1188 3.471 6.0737 5.6606 8.7964 3.0443 3.7885 6.6468 7.1227 10.654 9.8697a1.3016 1.3016 0 0 0 1.8107-0.33797 1.3016 1.3016 0 0 0 0.20567-0.97358 1.3016 1.3016 0 0 0-0.54312-0.83509c-3.798-2.6034-7.2168-5.7653-10.1-9.354a1.3018 1.3018 0 0 0-5.16e-4 -2e-3c-2.024-2.5167-3.7868-5.2446-5.2555-8.1225l6.0358-2.3797zm86.118 20.736a1.3016 1.3016 0 0 0-1.0526 0.46613c-2.9872 3.5726-6.5098 6.6995-10.412 9.2403a1.3018 1.3018 0 0 0-0.0021 1e-3c-0.92781 0.60462-1.8771 1.1763-2.8453 1.7141l-1.9022-0.28474-1.9575-4.9646-3.3161 4.176-5.2731-0.7891 1.9575 4.964-3.3249 4.1868 5.2875 0.79169 1.958 4.9656 3.3156-4.176 5.2731 0.78962-1.9575-4.9656 2.5223-3.1766c0.56808-0.33858 1.1295-0.68846 1.6836-1.0496l0.0016-1e-3c4.1198-2.6825 7.8341-5.9817 10.987-9.7529a1.3016 1.3016 0 0 0 0.29973-0.94929 1.3016 1.3016 0 0 0-0.46251-0.88419 1.3016 1.3016 0 0 0-0.78031-0.30179z" fill-rule="evenodd" opacity=".3" stop-color="#000000" stroke-dasharray="26.0324, 52.0648" stroke-dashoffset="30.458" stroke-linecap="round" stroke-linejoin="round" stroke-miterlimit="16.8" style="paint-order:stroke fill markers"/><path d="m42.628 20.428 2.5389 6.4389c-3.6673 1.848-7.1071 4.1477-10.211 6.8399-2.806 2.4327-5.3391 5.1792-7.5344 8.1752a1.3016 1.3016 0 0 0 0.28112 1.8206 1.3016 1.3016 0 0 0 1.8206-0.28112c2.0796-2.838 4.4793-5.4428 7.1381-7.7478 2.8795-2.4977 6.0673-4.6416 9.464-6.3748l2.3797 6.0358 9.9565-12.537-15.834-2.3694zm55.22 11.464a1.3016 1.3016 0 0 0-1.0382 0.49816 1.3016 1.3016 0 0 0 0.22169 1.8293c3.5995 2.8182 6.7861 6.1651 9.4227 9.8997 1.3014 1.8418 2.4697 3.7797 3.4954 5.7898l-6.0353 2.3792 12.537 9.9549 2.3699-15.832-6.4389 2.5383c-1.1087-2.1999-2.3787-4.3186-3.8013-6.3319-2.7836-3.9429-6.1428-7.4731-9.9431-10.448a1.3016 1.3016 0 0 0-0.78962-0.27698zm-78.833 48.895-2.3694 15.834 6.4389-2.5389c1.5719 3.1185 3.4705 6.0721 5.6601 8.7948 3.0446 3.7893 6.6466 7.1243 10.655 9.8718a1.3016 1.3016 0 0 0 1.8107-0.33796 1.3016 1.3016 0 0 0-0.33745-1.8092c-3.798-2.6034-7.2163-5.7648-10.1-9.3534a1.3018 1.3018 0 0 0-5.16e-4 -0.00206c-2.024-2.5167-3.7868-5.2451-5.2555-8.123l6.0374-2.3802-12.539-9.9555zm86.118 20.736a1.3016 1.3016 0 0 0-1.0526 0.46561c-2.9872 3.5726-6.5098 6.7-10.412 9.2408a1.3018 1.3018 0 0 0-0.002067 0.00103c-0.92781 0.60462-1.8771 1.1763-2.8453 1.7141l-1.9027-0.28474-1.9575-4.9646-3.315 4.1755-5.2736-0.7891 1.9575 4.9651-3.3233 4.1858 5.2855 0.79117 1.9575 4.9646 3.3161-4.1754 5.2731 0.7891-1.9575-4.964 2.5249-3.1791c0.56756-0.33845 1.1283-0.68815 1.6821-1.049 4.1205-2.6827 7.8342-5.9797 10.988-9.7513a1.3016 1.3016 0 0 0 0.2992-0.95136 1.3016 1.3016 0 0 0-0.46147-0.88264 1.3016 1.3016 0 0 0-0.78031-0.30127z" fill="#fff" fill-rule="evenodd" stop-color="#000000" stroke-dasharray="26.0324, 52.0648" stroke-dashoffset="30.458" stroke-linecap="round" stroke-linejoin="round" stroke-miterlimit="16.8" style="paint-order:stroke fill markers"/><path d="m8.2021 108.74v2.6458c0 8.7948 7.0802 15.875 15.875 15.875h87.312c8.7948 0 15.875-7.0802 15.875-15.875v-2.6458c0 8.7948-7.0802 15.875-15.875 15.875h-87.312c-8.7948 0-15.875-7.0802-15.875-15.875z" fill-rule="evenodd" opacity=".3" stroke-linecap="round" stroke-linejoin="round" stroke-miterlimit="16.8" stroke-width="1.3229" style="paint-order:stroke fill markers"/><path d="m135.47 101.07c0 17.536-14.215 31.75-31.75 31.75-17.536 0-31.75-14.215-31.75-31.75 0-17.536 14.215-31.75 31.75-31.75 17.536 0 31.75 14.215 31.75 31.75z" fill="#fd9733" stroke-width=".18814"/><path d="m112.27 108.85h-1.7985l-0.63793-0.61517c2.2312-2.5951 3.574-5.9641 3.574-9.6294 0-8.172-6.6241-14.796-14.797-14.796-8.172 0-14.796 6.6241-14.796 14.796 0 8.1725 6.624 14.798 14.796 14.798 3.6651 0 7.0342-1.3435 9.6294-3.574l0.61517 0.6372v1.7977l11.382 11.36 3.3917-3.3909zm-13.659 0c-5.668 0-10.244-4.5757-10.244-10.245 0-5.668 4.5757-10.244 10.244-10.244 5.6687 0 10.245 4.5757 10.245 10.244 0 5.6687-4.5757 10.245-10.245 10.245z" opacity=".3" stroke-width=".18814"/><path d="m112.27 106.21h-1.7985l-0.63793-0.61515c2.2312-2.5951 3.574-5.964 3.574-9.6294 0-8.172-6.6241-14.796-14.797-14.796-8.172 0-14.796 6.6241-14.796 14.796 0 8.1727 6.624 14.798 14.796 14.798 3.6651 0 7.0342-1.3435 9.6294-3.574l0.61515 0.6372v1.7976l11.382 11.36 3.3917-3.391zm-13.659 0c-5.668 0-10.244-4.5757-10.244-10.245 0-5.668 4.5757-10.244 10.244-10.244 5.6687 0 10.245 4.5757 10.245 10.244 0 5.6687-4.5757 10.245-10.245 10.245z" fill="#fff" stroke-width=".18814"/><path d="m24.077 8.2021c-8.7948 0-15.875 7.0802-15.875 15.875v2.6458c0-8.7948 7.0802-15.875 15.875-15.875h87.312c8.7948 0 15.875 7.0802 15.875 15.875v-2.6458c0-8.7948-7.0802-15.875-15.875-15.875h-87.312z" fill="#fff" fill-rule="evenodd" opacity=".3" stroke-linecap="round" stroke-linejoin="round" stroke-miterlimit="16.8" stroke-width="1.3229" style="paint-order:stroke fill markers"/></g></svg>
